<svg width="42" height="35" viewBox="0 0 42 35" fill="none" xmlns="http://www.w3.org/2000/svg">
<path d="M39.5 15H2.50004C2.4242 15.0005 2.34944 15.0192 2.28135 15.0547C2.21327 15.0902 2.15363 15.1416 2.10689 15.2051C2.06014 15.2685 2.02751 15.3424 2.01143 15.4211C1.99535 15.4999 1.99625 15.5815 2.01404 15.6598L6.02004 32.6779C6.11604 33.0359 6.41104 34.125 7.50004 34.125H34.5C35.593 34.125 35.885 33.0349 35.985 32.6598L39.985 15.6598C40.0034 15.5815 40.0048 15.4998 39.989 15.4209C39.9732 15.3419 39.9407 15.2679 39.894 15.2043C39.8472 15.1407 39.7874 15.0892 39.7192 15.0538C39.6509 15.0184 39.576 15 39.5 15ZM35.02 32.3857C34.838 33.0625 34.65 33.0625 34.5 33.0625H7.50004C7.35104 33.0625 7.16404 33.0625 6.98504 32.4027L3.14104 16.0625H38.86L35.02 32.3857Z" fill="#FAFAFA"/>
<path d="M18.5 29.7494C18.6326 29.7494 18.7598 29.6935 18.8536 29.5938C18.9473 29.4942 19 29.3591 19 29.2182V19.6557C19 19.5148 18.9473 19.3797 18.8536 19.28C18.7598 19.1804 18.6326 19.1244 18.5 19.1244C18.3674 19.1244 18.2402 19.1804 18.1464 19.28C18.0527 19.3797 18 19.5148 18 19.6557V29.2182C18 29.3591 18.0527 29.4942 18.1464 29.5938C18.2402 29.6935 18.3674 29.7494 18.5 29.7494ZM11.499 29.7494C11.5694 29.7496 11.639 29.734 11.7033 29.7036C11.7676 29.6731 11.8252 29.6287 11.8722 29.573C11.9192 29.5173 11.9546 29.4517 11.9761 29.3805C11.9976 29.3093 12.0047 29.2341 11.997 29.1598L10.997 19.5973C10.9824 19.4572 10.9161 19.329 10.8125 19.241C10.709 19.1529 10.5768 19.1121 10.445 19.1276C10.3132 19.1431 10.1926 19.2136 10.1097 19.3236C10.0268 19.4336 9.98841 19.5741 10.003 19.7141L11.003 29.2766C11.0165 29.4064 11.0746 29.5264 11.1661 29.6136C11.2576 29.7008 11.3761 29.7492 11.499 29.7494ZM24.5 29.7494C24.6326 29.7494 24.7598 29.6935 24.8536 29.5938C24.9473 29.4942 25 29.3591 25 29.2182V19.6557C25 19.5148 24.9473 19.3797 24.8536 19.28C24.7598 19.1804 24.6326 19.1244 24.5 19.1244C24.3674 19.1244 24.2402 19.1804 24.1464 19.28C24.0527 19.3797 24 19.5148 24 19.6557V29.2182C24 29.3591 24.0527 29.4942 24.1464 29.5938C24.2402 29.6935 24.3674 29.7494 24.5 29.7494ZM30.444 29.7463L30.501 29.7494C30.6239 29.7492 30.7424 29.7008 30.8339 29.6136C30.9254 29.5264 30.9835 29.4064 30.997 29.2766L31.997 19.7141C32.0116 19.5741 31.9732 19.4336 31.8903 19.3236C31.8074 19.2136 31.6868 19.1431 31.555 19.1276C31.4232 19.1121 31.291 19.1529 31.1875 19.241C31.0839 19.329 31.0176 19.4572 31.003 19.5973L30.003 29.1598C29.9884 29.2996 30.0266 29.44 30.1093 29.5499C30.192 29.6599 30.3124 29.7305 30.444 29.7463ZM34.5 12.7494C34.5958 12.7494 34.6895 12.7201 34.7701 12.6651C34.8507 12.6101 34.9147 12.5316 34.9545 12.439C34.9943 12.3465 35.0083 12.2437 34.9947 12.143C34.9812 12.0422 34.9406 11.9477 34.878 11.8708L25.378 0.183254C25.2896 0.0839395 25.1685 0.0246811 25.04 0.0178069C24.9114 0.0109327 24.7854 0.0569722 24.688 0.146347C24.5906 0.235721 24.5294 0.361549 24.5171 0.497651C24.5048 0.633753 24.5424 0.769649 24.622 0.877066L34.122 12.5646C34.1687 12.6226 34.2267 12.6691 34.2919 12.7011C34.3572 12.733 34.4282 12.7495 34.5 12.7494ZM17.816 0.119504C17.7133 0.0305594 17.5816 -0.0114535 17.4498 0.00269052C17.318 0.0168345 17.1969 0.0859792 17.113 0.194941L8.113 11.8824C8.06845 11.936 8.03454 11.9986 8.01331 12.0665C7.99207 12.1343 7.98394 12.206 7.9894 12.2773C7.99487 12.3485 8.01381 12.4179 8.0451 12.4812C8.0764 12.5445 8.11939 12.6004 8.17151 12.6456C8.22364 12.6908 8.28381 12.7244 8.34844 12.7443C8.41307 12.7643 8.48081 12.7701 8.54762 12.7616C8.61443 12.753 8.67892 12.7302 8.73724 12.6945C8.79555 12.6588 8.84649 12.611 8.887 12.5539L17.887 0.866441C17.9707 0.757346 18.0103 0.617411 17.9969 0.477365C17.9836 0.33732 17.9186 0.208611 17.816 0.119504ZM41.5 10.6244H37.5C37.3674 10.6244 37.2402 10.6804 37.1464 10.78C37.0527 10.8797 37 11.0148 37 11.1557C37 11.2966 37.0527 11.4317 37.1464 11.5313C37.2402 11.631 37.3674 11.6869 37.5 11.6869H41.5C41.6326 11.6869 41.7598 11.631 41.8536 11.5313C41.9473 11.4317 42 11.2966 42 11.1557C42 11.0148 41.9473 10.8797 41.8536 10.78C41.7598 10.6804 41.6326 10.6244 41.5 10.6244ZM13.5 11.6869H29.5C29.6326 11.6869 29.7598 11.631 29.8536 11.5313C29.9473 11.4317 30 11.2966 30 11.1557C30 11.0148 29.9473 10.8797 29.8536 10.78C29.7598 10.6804 29.6326 10.6244 29.5 10.6244H13.5C13.3674 10.6244 13.2402 10.6804 13.1464 10.78C13.0527 10.8797 13 11.0148 13 11.1557C13 11.2966 13.0527 11.4317 13.1464 11.5313C13.2402 11.631 13.3674 11.6869 13.5 11.6869ZM0.5 11.6869H5.5C5.63261 11.6869 5.75979 11.631 5.85355 11.5313C5.94732 11.4317 6 11.2966 6 11.1557C6 11.0148 5.94732 10.8797 5.85355 10.78C5.75979 10.6804 5.63261 10.6244 5.5 10.6244H0.5C0.367392 10.6244 0.240215 10.6804 0.146447 10.78C0.0526784 10.8797 0 11.0148 0 11.1557C0 11.2966 0.0526784 11.4317 0.146447 11.5313C0.240215 11.631 0.367392 11.6869 0.5 11.6869Z" fill="#FAFAFA"/>
</svg>
