<svg width="40" height="42" viewBox="0 0 40 42" fill="none" xmlns="http://www.w3.org/2000/svg">
<path d="M39.611 17.3374H38V17.2529H20V25.3941H31.303C29.654 30.1333 25.223 33.5353 20 33.5353C13.373 33.5353 8 28.0675 8 21.3235C8 14.5796 13.373 9.11176 20 9.11176C23.059 9.11176 25.842 10.2861 27.961 12.2044L33.618 6.44756C30.046 3.05981 25.268 0.970581 20 0.970581C8.955 0.970581 0 10.0836 0 21.3235C0 32.5634 8.955 41.6765 20 41.6765C31.045 41.6765 40 32.5634 40 21.3235C40 19.9589 39.862 18.6268 39.611 17.3374Z" fill="#FFC107"/>
<path d="M2.1434 12.1351L8.73453 17.0695C10.4941 12.5293 14.787 9.31092 19.826 9.2897C22.885 9.27682 25.6728 10.4534 27.7996 12.3854L33.4329 6.53662C29.847 3.12383 25.0604 1.03 19.7925 1.05219C12.1105 1.08454 5.46677 5.57836 2.1434 12.1351Z" fill="#FF3D00"/>
<path d="M39.611 17.3374H38V17.2529H20V25.3941H31.303C30.5142 27.6496 29.0934 29.6206 27.216 31.0634L27.219 31.0614L33.409 36.3918C32.971 36.7969 40 31.5 40 21.3235C40 19.9589 39.862 18.6268 39.611 17.3374Z" fill="#1976D2"/>
<path d="M19.9438 41.6748C25.15 41.6903 29.8864 39.6925 33.4724 36.4314L27.2495 31.0824C25.1533 32.6824 22.595 33.5436 19.9672 33.5337C14.7247 33.518 10.2831 30.1293 8.61964 25.4136L2.03217 30.5077C5.34899 37.1089 12.1103 41.6515 19.9438 41.6748Z" fill="#4CAF50"/>
</svg>
