<svg width="98" height="98" viewBox="0 0 98 98" fill="none" xmlns="http://www.w3.org/2000/svg">
<circle cx="49" cy="49" r="49" fill="url(#paint0_linear_230_410)"/>
<path d="M46.3198 64.766H35.5471V29.8569H46.7971C50.1835 29.8569 53.0812 30.5558 55.4903 31.9535C57.8994 33.3399 59.746 35.3342 61.0301 37.9364C62.3141 40.5274 62.9562 43.6296 62.9562 47.2433C62.9562 50.8796 62.3085 54.0103 61.013 56.6353C59.7176 59.2489 57.8312 61.2603 55.3539 62.6694C52.8766 64.0671 49.8653 64.766 46.3198 64.766ZM39.7744 61.016H46.0471C48.9335 61.016 51.3255 60.4592 53.2232 59.3455C55.121 58.2319 56.5357 56.6467 57.4676 54.5899C58.3994 52.533 58.8653 50.0842 58.8653 47.2433C58.8653 44.4251 58.4051 41.9989 57.4846 39.9649C56.5641 37.9194 55.1891 36.3512 53.3596 35.2603C51.5301 34.158 49.2516 33.6069 46.5244 33.6069H39.7744V61.016Z" fill="#FAFAFA"/>
<defs>
<linearGradient id="paint0_linear_230_410" x1="0" y1="49" x2="98" y2="49" gradientUnits="userSpaceOnUse">
<stop stop-color="#30F31F"/>
<stop offset="0.9999" stop-color="#30F31F" stop-opacity="0.861458"/>
</linearGradient>
</defs>
</svg>
