<svg width="40" height="39" viewBox="0 0 40 39" fill="none" xmlns="http://www.w3.org/2000/svg">
<path d="M39.4398 19.5C39.4398 29.9823 30.7341 38.5 19.9699 38.5C9.20567 38.5 0.5 29.9823 0.5 19.5C0.5 9.01775 9.20567 0.5 19.9699 0.5C30.7341 0.5 39.4398 9.01775 39.4398 19.5Z" stroke="#000000"/>
<path d="M4.41331 18.2929C4.02279 18.6834 4.02279 19.3166 4.41331 19.7071L10.7773 26.0711C11.1678 26.4616 11.801 26.4616 12.1915 26.0711C12.582 25.6805 12.582 25.0474 12.1915 24.6569L6.53463 19L12.1915 13.3431C12.582 12.9526 12.582 12.3195 12.1915 11.9289C11.801 11.5384 11.1678 11.5384 10.7773 11.9289L4.41331 18.2929ZM34.8192 18L5.12042 18V20L34.8192 20V18Z" fill="#000000"/>
</svg>
