<svg width="33" height="33" viewBox="0 0 33 33" fill="none" xmlns="http://www.w3.org/2000/svg">
<path d="M19.25 6.87502C19.5713 6.87439 19.8826 6.98628 20.13 7.19127C20.2693 7.3067 20.3843 7.44847 20.4687 7.60844C20.5531 7.76842 20.605 7.94347 20.6216 8.12356C20.6382 8.30365 20.6192 8.48525 20.5655 8.65796C20.5118 8.83066 20.4245 8.99108 20.3088 9.13002L14.1488 16.5L20.0888 23.8838C20.203 24.0244 20.2883 24.1862 20.3397 24.36C20.3912 24.5337 20.4078 24.7159 20.3887 24.896C20.3695 25.0762 20.3149 25.2508 20.2281 25.4098C20.1412 25.5688 20.0238 25.7091 19.8825 25.8225C19.7403 25.9477 19.5737 26.0421 19.3932 26.0998C19.2127 26.1576 19.0222 26.1774 18.8337 26.158C18.6452 26.1387 18.4627 26.0805 18.2978 25.9873C18.1328 25.8941 17.9889 25.7678 17.875 25.6163L11.2338 17.3663C11.0315 17.1202 10.921 16.8116 10.921 16.4931C10.921 16.1747 11.0315 15.8661 11.2338 15.62L18.1088 7.37002C18.2467 7.20362 18.4219 7.07209 18.6202 6.98608C18.8185 6.90008 19.0343 6.86203 19.25 6.87502Z" fill="#084F8F"/>
</svg>
