<svg width="98" height="98" viewBox="0 0 98 98" fill="none" xmlns="http://www.w3.org/2000/svg">
<circle cx="49" cy="49" r="49" fill="url(#paint0_linear_533_94)"/>
<path d="M46.3196 64.766H35.5469V29.8569H46.7969C50.1832 29.8569 53.0809 30.5558 55.49 31.9535C57.8991 33.3399 59.7457 35.3342 61.0298 37.9364C62.3139 40.5274 62.9559 43.6296 62.9559 47.2433C62.9559 50.8796 62.3082 54.0103 61.0128 56.6353C59.7173 59.2489 57.8309 61.2603 55.3537 62.6694C52.8764 64.0671 49.865 64.766 46.3196 64.766ZM39.7741 61.016H46.0469C48.9332 61.016 51.3253 60.4592 53.223 59.3455C55.1207 58.2319 56.5355 56.6467 57.4673 54.5899C58.3991 52.533 58.865 50.0842 58.865 47.2433C58.865 44.4251 58.4048 41.9989 57.4844 39.9649C56.5639 37.9194 55.1889 36.3512 53.3594 35.2603C51.5298 34.158 49.2514 33.6069 46.5241 33.6069H39.7741V61.016Z" fill="#FAFAFA"/>
<defs>
<linearGradient id="paint0_linear_533_94" x1="0" y1="49" x2="98" y2="49" gradientUnits="userSpaceOnUse">
<stop stop-color="#1F8EF3"/>
<stop offset="0.9999" stop-color="#198AE9" stop-opacity="0.861458"/>
</linearGradient>
</defs>
</svg>
