<svg width="40" height="39" viewBox="0 0 40 39" fill="none" xmlns="http://www.w3.org/2000/svg">
<path d="M39.4398 19.5C39.4398 29.9823 30.7341 38.5 19.9699 38.5C9.20567 38.5 0.5 29.9823 0.5 19.5C0.5 9.01775 9.20567 0.5 19.9699 0.5C30.7341 0.5 39.4398 9.01775 39.4398 19.5Z" stroke="#FAFAFA"/>
<path d="M35.4059 20.7071C35.7964 20.3166 35.7964 19.6834 35.4059 19.2929L29.0419 12.9289C28.6514 12.5384 28.0183 12.5384 27.6277 12.9289C27.2372 13.3195 27.2372 13.9526 27.6277 14.3431L33.2846 20L27.6277 25.6569C27.2372 26.0474 27.2372 26.6805 27.6277 27.0711C28.0183 27.4616 28.6514 27.4616 29.0419 27.0711L35.4059 20.7071ZM5 21L34.6988 21L34.6988 19L5 19L5 21Z" fill="#FAFAFA"/>
</svg>
