<svg width="33" height="33" viewBox="0 0 33 33" fill="none" xmlns="http://www.w3.org/2000/svg">
<path d="M13.75 26.125C13.4287 26.1256 13.1174 26.0137 12.87 25.8087C12.7307 25.6933 12.6157 25.5515 12.5313 25.3916C12.4469 25.2316 12.395 25.0565 12.3784 24.8764C12.3618 24.6963 12.3808 24.5147 12.4345 24.342C12.4882 24.1693 12.5755 24.0089 12.6912 23.87L18.8512 16.5L12.9112 9.11623C12.797 8.97558 12.7117 8.81375 12.6603 8.64003C12.6088 8.46632 12.5922 8.28414 12.6113 8.10398C12.6305 7.92381 12.6851 7.74921 12.7719 7.59021C12.8588 7.43121 12.9762 7.29095 13.1175 7.17748C13.2597 7.0523 13.4263 6.95789 13.6068 6.90015C13.7873 6.84242 13.9778 6.82261 14.1663 6.84198C14.3548 6.86134 14.5373 6.91947 14.7022 7.01269C14.8672 7.10592 15.0111 7.23224 15.125 7.38373L21.7662 15.6337C21.9685 15.8798 22.079 16.1884 22.079 16.5069C22.079 16.8253 21.9685 17.1339 21.7662 17.38L14.8912 25.63C14.7533 25.7964 14.5781 25.9279 14.3798 26.0139C14.1815 26.0999 13.9657 26.138 13.75 26.125Z" fill="#084F8F"/>
</svg>
